<?xml version="1.0" encoding="UTF-8" standalone="no"?>
<!-- Created with Inkscape (http://www.inkscape.org/) -->

<svg
   xmlns:dc="http://purl.org/dc/elements/1.1/"
   xmlns:cc="http://creativecommons.org/ns#"
   xmlns:rdf="http://www.w3.org/1999/02/22-rdf-syntax-ns#"
   xmlns:svg="http://www.w3.org/2000/svg"
   xmlns="http://www.w3.org/2000/svg"
   xmlns:sodipodi="http://sodipodi.sourceforge.net/DTD/sodipodi-0.dtd"
   xmlns:inkscape="http://www.inkscape.org/namespaces/inkscape"
   version="1.1"
   id="svg815"
   width="909.33331"
   height="1066.6667"
   viewBox="0 0 909.33331 1066.6667"
   sodipodi:docname="Hexagon logo Don Diablo vector NoFill.svg"
   inkscape:version="0.92.4 (5da689c313, 2019-01-14)">
  <metadata
     id="metadata821">
    <rdf:RDF>
      <cc:Work
         rdf:about="">
        <dc:format>image/svg+xml</dc:format>
        <dc:type
           rdf:resource="http://purl.org/dc/dcmitype/StillImage" />
        <dc:title></dc:title>
      </cc:Work>
    </rdf:RDF>
  </metadata>
  <defs
     id="defs819" />
  <sodipodi:namedview
     pagecolor="#ffffff"
     bordercolor="#666666"
     borderopacity="1"
     objecttolerance="10"
     gridtolerance="10"
     guidetolerance="10"
     inkscape:pageopacity="0"
     inkscape:pageshadow="2"
     inkscape:window-width="1920"
     inkscape:window-height="1001"
     id="namedview817"
     showgrid="false"
     inkscape:zoom="2.198218"
     inkscape:cx="383.46744"
     inkscape:cy="507.46425"
     inkscape:window-x="-9"
     inkscape:window-y="-9"
     inkscape:window-maximized="1"
     inkscape:current-layer="g5709"
     inkscape:pagecheckerboard="true" />
  <g
     id="g4607"
     transform="translate(-48.98559,77.984862)"
     style="fill:#000000;fill-opacity:1">
    <g
       id="g5718">
      <g
         id="g5709">
        <path
           inkscape:connector-curvature="0"
           id="path4533"
           d="m 454.15943,398.90076 -114.54883,66.6211 0.13477,133.00586 114.68164,66.38476 114.54883,-66.61914 -0.13477,-133.00586 z m 0.004,5.30665 110.3418,63.73828 0.1289,127.69922 L 454.42319,659.60584 344.0814,595.86951 343.95249,468.1703 Z"
           style="opacity:1;fill:#000000;fill-opacity:1;stroke:none;stroke-width:0.37795275;stroke-linecap:square;stroke-linejoin:miter;stroke-miterlimit:4;stroke-dasharray:none;stroke-opacity:1" />
        <path
           style="opacity:1;fill:#000000;fill-opacity:1;stroke:none;stroke-width:0.37795275;stroke-linecap:square;stroke-linejoin:miter;stroke-miterlimit:4;stroke-dasharray:none;stroke-opacity:1"
           d="m 495.52764,520.08765 h 44.97178 v 7.05116 h -41.71484 z m -11.31885,7.05116 h -59.87134 l 1.64857,-3.52558 1.64857,-3.52558 h 53.31726 z m -74.42703,0 -41.69472,0 v -7.05116 h 44.99186 z"
           id="rect4585"
           inkscape:connector-curvature="0"
           sodipodi:nodetypes="cccccccccccccccc" />
        <path
           style="opacity:1;fill:#000000;fill-opacity:1;stroke:none;stroke-width:0.37795275;stroke-linecap:square;stroke-linejoin:miter;stroke-miterlimit:4;stroke-dasharray:none;stroke-opacity:1"
           d="m 500.67441,531.11932 h 39.82501 v 7.05117 h -36.54797 l -1.63852,-3.52559 z m -96.07962,7.05117 h -36.50775 v -7.05117 h 39.80489 z m 17.89304,-7.05117 h 63.57057 l 3.31725,7.05117 h -70.18496 z"
           id="rect4585-6"
           inkscape:connector-curvature="0"
           sodipodi:nodetypes="cccccccccccccccc" />
        <path
           inkscape:connector-curvature="0"
           id="path4563"
           d="m 438.31087,466.05941 c -28.58908,7.13943 -49.76765,32.99345 -49.76765,63.79399 0,10.27203 2.35555,19.9939 6.55596,28.65489 l 4.09276,-8.74345 c -2.25502,-6.21469 -3.48458,-12.91962 -3.48466,-19.91116 -5.5e-4,-25.25221 16.03787,-46.76584 38.50267,-54.94691 z m 16.66577,-1.95253 c -0.22753,-0.002 -0.45534,-0.003 -0.68342,-0.003 v -2e-4 c -0.22136,0 -0.44247,10e-4 -0.66332,0.003 l -3.44018,7.4155 c 1.35566,-0.0936 2.72401,-0.14117 4.1035,-0.14115 1.38579,3e-5 2.76033,0.0481 4.12206,0.14257 z m 46.56967,100.3158 c -10.66208,14.49327 -27.85674,23.90134 -47.25309,23.90171 -19.39438,2.8e-4 -36.58778,-9.4053 -47.25058,-23.89563 l -3.45416,7.28547 c 12.05978,14.59106 30.29642,23.88917 50.70474,23.88917 20.38695,0 38.60675,-9.27864 50.66683,-23.84334 z m 11.9362,-5.9046 c 4.20338,-8.66346 6.56071,-18.38878 6.56071,-28.66468 0,-30.81349 -21.19639,-56.6763 -49.80372,-63.80299 l 4.1147,8.84896 c 22.47551,8.17551 38.52355,29.69455 38.523,54.95431 -8e-5,7.00851 -1.23562,13.72901 -3.5011,19.9564 z"
           style="opacity:1;fill:#000000;fill-opacity:1;stroke:none;stroke-width:0.37795296;stroke-linecap:square;stroke-linejoin:miter;stroke-miterlimit:4;stroke-dasharray:none;stroke-opacity:1"
           sodipodi:nodetypes="csccscccscccccccsccscccsccscc" />
        <path
           sodipodi:nodetypes="cccccccccc"
           inkscape:connector-curvature="0"
           id="path4581"
           d="m 454.29322,455.9448 -3.35884,7.2293 -65.33316,140.61773 -7.05117,-3.1844 75.74317,-161.94936 41.91886,89.62832 0.0218,0.0467 33.80248,72.27438 -7.05117,3.1844 -68.692,-147.84703"
           style="fill:#000000;fill-opacity:1;stroke:none;stroke-width:5.6692915;stroke-linecap:butt;stroke-linejoin:miter;stroke-miterlimit:4;stroke-dasharray:none;stroke-opacity:1;paint-order:markers stroke fill" />
      </g>
    </g>
  </g>
</svg>
